<svg version="1.2" baseProfile="tiny-ps" xmlns="http://www.w3.org/2000/svg" viewBox="0 0 108 20" width="108" height="20">
	<title>公众号-程序员库森-green-svg</title>
	<defs>
		<clipPath clipPathUnits="userSpaceOnUse" id="cp1">
			<path d="M0 3C0 1.34 1.34 0 3 0L105 0C106.66 0 108 1.34 108 3L108 17C108 18.66 106.66 20 105 20L3 20C1.34 20 0 18.66 0 17L0 3Z" />
		</clipPath>
		<linearGradient id="grd1" gradientUnits="userSpaceOnUse"  x1="0" y1="0" x2="0" y2="400">
			<stop offset="0" stop-color="#bbbbbb" stop-opacity="0.1" />
			<stop offset="1" stop-color="#000000" stop-opacity="0.1" />
		</linearGradient>
	</defs>
	<style>
		tspan { white-space:pre }
		.shp0 { fill: #555555 } 
		.shp1 { fill: #97ca00 } 
		.shp2 { fill: url(#grd1) } 
		.txt3 { font-size: 110px;fill: #010101;font-family: "Verdana" } 
		.txt4 { font-size: 110px;fill: #ffffff;font-family: "Verdana" } 
	</style>
	<g id="Clip-Path" clip-path="url(#cp1)">
		<g id="Layer">
			<path id="Layer" class="shp0" d="M0 0L43 0L43 20L0 20L0 0Z" />
			<path id="Layer" class="shp1" d="M43 0L108 0L108 20L43 20L43 0Z" />
			<path id="Layer" class="shp2" d="M0 0L108 0L108 20L0 20L0 0Z" />
		</g>
	</g>
	<g id="Layer">
		<text id="公众号" style="opacity: 0.302;transform: matrix(0.1,0,0,0.1,22.5,15)" >
			<tspan x="-165" y="0" class="txt3">公众号
</tspan>
		</text>
		<text id="公众号" style="transform: matrix(0.1,0,0,0.1,22.5,14)" >
			<tspan x="-165" y="0" class="txt4">公众号
</tspan>
		</text>
		<text id="程序员大彬" style="transform: matrix(0.1,0,0,0.1,74.5,14)" >
			<tspan x="-275" y="0" class="txt4">程序员</tspan><tspan  y="0" class="txt4">大彬</tspan><tspan  y="0" class="txt4">
</tspan>
		</text>
	</g>
</svg>