<svg version="1.2" baseProfile="tiny-ps" xmlns="http://www.w3.org/2000/svg" viewBox="0 0 106 20" width="106" height="20">
	<title>CSDN-程序员库森-important-svg</title>
	<defs>
		<clipPath clipPathUnits="userSpaceOnUse" id="cp1">
			<path d="M0 3C0 1.34 1.34 0 3 0L103 0C104.66 0 106 1.34 106 3L106 17C106 18.66 104.66 20 103 20L3 20C1.34 20 0 18.66 0 17L0 3Z" />
		</clipPath>
		<linearGradient id="grd1" gradientUnits="userSpaceOnUse"  x1="0" y1="0" x2="0" y2="400">
			<stop offset="0" stop-color="#bbbbbb" stop-opacity="0.1" />
			<stop offset="1" stop-color="#000000" stop-opacity="0.1" />
		</linearGradient>
	</defs>
	<style>
		tspan { white-space:pre }
		.shp0 { fill: #555555 } 
		.shp1 { fill: #fe7d37 } 
		.shp2 { fill: url(#grd1) } 
		.txt3 { font-size: 110px;fill: #ffffff;font-family: "Verdana" } 
	</style>
	<g id="Clip-Path" clip-path="url(#cp1)">
		<g id="Layer">
			<path id="Layer" class="shp0" d="M0 0L41 0L41 20L0 20L0 0Z" />
			<path id="Layer" class="shp1" d="M41 0L106 0L106 20L41 20L41 0Z" />
			<path id="Layer" class="shp2" d="M0 0L106 0L106 20L0 20L0 0Z" />
		</g>
	</g>
	<g id="Layer">
		<text id="掘金 " style="transform: matrix(0.1,0,0,0.1,23.5,14)" >
			<tspan x="-110" y="0" class="txt3">掘金
</tspan>
		</text>
		<text id="程序员大彬 " style="transform: matrix(0.1,0,0,0.1,72.5,14)" >
			<tspan x="-275" y="0" class="txt3">程序员</tspan><tspan  y="0" class="txt3">大</tspan><tspan  y="0" class="txt3">彬</tspan><tspan  y="0" class="txt3">
</tspan>
		</text>
	</g>
</svg>