<svg version="1.2" baseProfile="tiny-ps" xmlns="http://www.w3.org/2000/svg" viewBox="0 0 98 20" width="98" height="20">
	<title>知乎-程序员库森-informational-svg</title>
	<defs>
		<clipPath clipPathUnits="userSpaceOnUse" id="cp1">
			<path d="M0 3C0 1.34 1.34 0 3 0L95 0C96.66 0 98 1.34 98 3L98 17C98 18.66 96.66 20 95 20L3 20C1.34 20 0 18.66 0 17L0 3Z" />
		</clipPath>
		<linearGradient id="grd1" gradientUnits="userSpaceOnUse"  x1="0" y1="0" x2="0" y2="400">
			<stop offset="0" stop-color="#bbbbbb" stop-opacity="0.1" />
			<stop offset="1" stop-color="#000000" stop-opacity="0.1" />
		</linearGradient>
	</defs>
	<style>
		tspan { white-space:pre }
		.shp0 { fill: #555555 } 
		.shp1 { fill: #007ec6 } 
		.shp2 { fill: url(#grd1) } 
		.txt3 { font-size: 110px;fill: #010101;font-family: "Verdana" } 
		.txt4 { font-size: 110px;fill: #ffffff;font-family: "Verdana" } 
	</style>
	<g id="Clip-Path" clip-path="url(#cp1)">
		<g id="Layer">
			<path id="Layer" class="shp0" d="M0 0L33 0L33 20L0 20L0 0Z" />
			<path id="Layer" class="shp1" d="M33 0L98 0L98 20L33 20L33 0Z" />
			<path id="Layer" class="shp2" d="M0 0L98 0L98 20L0 20L0 0Z" />
		</g>
	</g>
	<g id="Layer">
		<text id="知乎" style="opacity: 0.302;transform: matrix(0.1,0,0,0.1,17.5,15)" >
			<tspan x="-110" y="0" class="txt3">知乎
</tspan>
		</text>
		<text id="知乎" style="transform: matrix(0.1,0,0,0.1,17.5,14)" >
			<tspan x="-110" y="0" class="txt4">知乎
</tspan>
		</text>
		<text id="程序员大彬" style="transform: matrix(0.1,0,0,0.1,64.5,14)" >
			<tspan x="-275" y="0" class="txt4">程序员</tspan><tspan  y="0" class="txt4">大彬</tspan><tspan  y="0" class="txt4">
</tspan>
		</text>
	</g>
</svg>